<svg version="1.0" xmlns="http://www.w3.org/2000/svg" width="1569.3" height="1870.7" viewBox="0 0 1177 1403"><g fill="#E72329"><path d="M453 2a118 118 0 00-42 14c-2 0-15 11-19 15-12 13-19 29-23 50-4 18-4 64 0 134l2 64c1 80-6 126-26 166a789 789 0 01-69 105l-11 15-13 17a2781 2781 0 01-82 103c-2 4-2 4-2 22 1 13 1 21 3 28a235 235 0 0067 118l12-11a1751 1751 0 01101-92 4003 4003 0 01223-183l7-7-5-7a379 379 0 01-68-128l5 5a1603 1603 0 0052 62l10 11 10 12a3026 3026 0 0099 95l9 8a1476 1476 0 0089 68c2 0 1-4-2-6l-8-8-11-10a1250 1250 0 01-136-150l-5-7a1249 1249 0 01-61-89c-29-46-58-102-75-146-14-34-22-62-28-92-6-25-7-41-7-64 1-32 7-52 20-71 13-18 34-29 59-32l10-3a260 260 0 00-85-7zM866 206l2 4 28 35 18 22 8 10 20 25 10 14a402 402 0 0019 26 1783 1783 0 0194 144c17 30 40 77 50 104 18 47 26 92 23 123-3 25-8 41-20 61-7 12-9 17-9 20s0 3 4 3l15-5c8-4 11-6 17-13l9-10 4-4c7-10 14-29 17-45a272 272 0 00-23-148 556 556 0 00-75-139l-6-8-5-7a174 174 0 00-12-16l-25-32-8-10a454 454 0 00-36-41l-8-9-72-72-18-17-14-13c-4-3-7-4-7-2zM687 335c-4 2-11 9-12 14-4 13-1 34 8 57 5 12 23 45 32 56l7 10a159 159 0 0010 12l26 26c19 19 43 33 61 39l14 1c6 0 9 0 13-2 16-8 17-33 4-68-6-16-20-41-30-55l-6-8c-29-38-65-69-96-81-9-3-25-4-31-1zM51 835l-3 4-5 6-37 50-5 8-1 12c0 20 3 38 13 59a284 284 0 0041 63l8 10c4 6 8 7 10 4a102 102 0 008-10l4-5 8-10a1126 1126 0 0138-51l-7-8a342 342 0 01-58-90c-4-11-7-23-8-34-1-12-2-13-6-8zM603 851l-10 2a360 360 0 00-77 24l-16 7a556 556 0 00-69 38l-13 9a250 250 0 00-24 18c-8 6-33 29-33 32s3 2 10-2a429 429 0 0172-31 418 418 0 00-28 23l-10 9c-12 10-26 25-28 29-4 6-5 22-6 70a2017 2017 0 01-7 140c-4 14-17 35-30 46a1386 1386 0 00-75 79l-18 19a3409 3409 0 01-35 38 20001 20001 0 01264 0l3-3 12-18 14-21a412 412 0 0141-59 461 461 0 0042-62l3-4 6 7c5 8 7 9 24 10h11l5-5c13-11 49-60 55-72v-6c0-3-9-19-19-36l-8-13 3-10c7-19 8-24 8-35-1-9-1-11-4-17-5-9-13-15-19-12-2 0-3-1-1-2l4-7c2-5 2-6 2-15-1-17-10-36-19-40-4-2-11-2-14 0-4 2-5 1-2-3l1-11c0-10-2-16-10-22-10-8-14-9-24-9h-10c-2 1-2 1-1-2 4-13-3-27-17-34l-4-1 8-6a904 904 0 0153-37l5-5h-15z"/></g></svg>